<svg width="57" height="24" viewBox="0 0 57 24" fill="none" xmlns="http://www.w3.org/2000/svg">
<path d="M8.92614 10.5H7.69318C7.62027 10.1454 7.49266 9.83381 7.31037 9.56534C7.13139 9.29688 6.91264 9.0715 6.65412 8.8892C6.39891 8.7036 6.11553 8.56439 5.80398 8.47159C5.49242 8.37879 5.16761 8.33239 4.82955 8.33239C4.21307 8.33239 3.65459 8.48816 3.15412 8.79972C2.65696 9.11127 2.26089 9.57031 1.96591 10.1768C1.67424 10.7834 1.52841 11.5275 1.52841 12.4091C1.52841 13.2907 1.67424 14.0348 1.96591 14.6413C2.26089 15.2479 2.65696 15.7069 3.15412 16.0185C3.65459 16.33 4.21307 16.4858 4.82955 16.4858C5.16761 16.4858 5.49242 16.4394 5.80398 16.3466C6.11553 16.2538 6.39891 16.1162 6.65412 15.9339C6.91264 15.7483 7.13139 15.5213 7.31037 15.2528C7.49266 14.9811 7.62027 14.6695 7.69318 14.3182H8.92614C8.83333 14.8385 8.6643 15.3042 8.41903 15.7152C8.17377 16.1262 7.86885 16.4759 7.50426 16.7642C7.13968 17.0492 6.73035 17.2663 6.27628 17.4155C5.82552 17.5646 5.34328 17.6392 4.82955 17.6392C3.96117 17.6392 3.18892 17.4271 2.51278 17.0028C1.83665 16.5786 1.30469 15.9754 0.916903 15.1932C0.529119 14.411 0.335227 13.483 0.335227 12.4091C0.335227 11.3352 0.529119 10.4072 0.916903 9.625C1.30469 8.8428 1.83665 8.23958 2.51278 7.81534C3.18892 7.3911 3.96117 7.17898 4.82955 7.17898C5.34328 7.17898 5.82552 7.25355 6.27628 7.4027C6.73035 7.55185 7.13968 7.7706 7.50426 8.05895C7.86885 8.34399 8.17377 8.692 8.41903 9.10298C8.6643 9.51065 8.83333 9.97633 8.92614 10.5ZM13.0066 17.679C12.5227 17.679 12.0835 17.5878 11.6891 17.4055C11.2947 17.2199 10.9815 16.9531 10.7495 16.6051C10.5175 16.2538 10.4015 15.8295 10.4015 15.3324C10.4015 14.8949 10.4876 14.5402 10.66 14.2685C10.8323 13.9934 11.0627 13.7779 11.351 13.6222C11.6394 13.4664 11.9576 13.3504 12.3056 13.2741C12.6569 13.1946 13.0099 13.1316 13.3645 13.0852C13.8285 13.0256 14.2047 12.9808 14.4931 12.951C14.7847 12.9179 14.9969 12.8632 15.1294 12.7869C15.2653 12.7107 15.3333 12.5781 15.3333 12.3892V12.3494C15.3333 11.8589 15.199 11.4777 14.9306 11.206C14.6654 10.9342 14.2627 10.7983 13.7225 10.7983C13.1623 10.7983 12.7232 10.9209 12.405 11.1662C12.0868 11.4115 11.8631 11.6733 11.7338 11.9517L10.6202 11.554C10.8191 11.09 11.0842 10.7287 11.4157 10.4702C11.7504 10.2083 12.115 10.026 12.5094 9.9233C12.9071 9.81723 13.2982 9.7642 13.6827 9.7642C13.928 9.7642 14.2097 9.79403 14.5279 9.85369C14.8494 9.91004 15.1593 10.0277 15.4576 10.2067C15.7592 10.3857 16.0094 10.6558 16.2083 11.017C16.4071 11.3783 16.5066 11.8622 16.5066 12.4688V17.5H15.3333V16.4659H15.2736C15.1941 16.6316 15.0615 16.8089 14.8759 16.9979C14.6903 17.1868 14.4434 17.3475 14.1351 17.4801C13.8269 17.6127 13.4507 17.679 13.0066 17.679ZM13.1855 16.625C13.6496 16.625 14.0407 16.5339 14.3588 16.3516C14.6803 16.1693 14.9223 15.9339 15.0847 15.6456C15.2504 15.3572 15.3333 15.054 15.3333 14.7358V13.6619C15.2836 13.7216 15.1742 13.7763 15.0051 13.826C14.8394 13.8724 14.6472 13.9138 14.4284 13.9503C14.213 13.9834 14.0025 14.0133 13.7971 14.0398C13.5949 14.063 13.4308 14.0829 13.3049 14.0994C12.9999 14.1392 12.7149 14.2038 12.4498 14.2933C12.1879 14.3795 11.9758 14.5104 11.8134 14.6861C11.6543 14.8584 11.5748 15.0937 11.5748 15.392C11.5748 15.7997 11.7256 16.108 12.0272 16.3168C12.3321 16.5223 12.7182 16.625 13.1855 16.625ZM18.6481 17.5V9.86364H19.7816V11.017H19.8612C20.0004 10.6392 20.2522 10.3326 20.6168 10.0973C20.9814 9.86198 21.3924 9.74432 21.8498 9.74432C21.936 9.74432 22.0437 9.74597 22.1729 9.74929C22.3022 9.7526 22.4 9.75758 22.4663 9.7642V10.9574C22.4265 10.9474 22.3353 10.9325 22.1928 10.9126C22.0536 10.8894 21.9061 10.8778 21.7504 10.8778C21.3791 10.8778 21.0477 10.9557 20.756 11.1115C20.4677 11.264 20.239 11.4761 20.07 11.7479C19.9042 12.0163 19.8214 12.3229 19.8214 12.6676V17.5H18.6481ZM27.6566 9.86364V10.858H23.6992V9.86364H27.6566ZM24.8526 8.03409H26.0259V15.3125C26.0259 15.6439 26.074 15.8925 26.1701 16.0582C26.2695 16.2206 26.3955 16.33 26.5479 16.3864C26.7037 16.4394 26.8678 16.4659 27.0401 16.4659C27.1694 16.4659 27.2755 16.4593 27.3583 16.446C27.4412 16.4295 27.5075 16.4162 27.5572 16.4062L27.7958 17.4602C27.7163 17.4901 27.6052 17.5199 27.4627 17.5497C27.3202 17.5829 27.1396 17.5994 26.9208 17.5994C26.5894 17.5994 26.2646 17.5282 25.9464 17.3857C25.6315 17.2431 25.3697 17.026 25.1609 16.7344C24.9554 16.4427 24.8526 16.0748 24.8526 15.6307V8.03409Z" fill="white"/>
<g clip-path="url(#clip0_5219_2618)">
<path d="M41.5 22C42.0523 22 42.5 21.5523 42.5 21C42.5 20.4477 42.0523 20 41.5 20C40.9477 20 40.5 20.4477 40.5 21C40.5 21.5523 40.9477 22 41.5 22Z" stroke="white" stroke-width="1.5" stroke-linecap="round" stroke-linejoin="round"/>
<path d="M52.5 22C53.0523 22 53.5 21.5523 53.5 21C53.5 20.4477 53.0523 20 52.5 20C51.9477 20 51.5 20.4477 51.5 21C51.5 21.5523 51.9477 22 52.5 22Z" stroke="white" stroke-width="1.5" stroke-linecap="round" stroke-linejoin="round"/>
<path d="M33.5 1H37.5L40.18 14.39C40.2714 14.8504 40.5219 15.264 40.8875 15.5583C41.2532 15.8526 41.7107 16.009 42.18 16H51.9C52.3693 16.009 52.8268 15.8526 53.1925 15.5583C53.5581 15.264 53.8086 14.8504 53.9 14.39L55.5 6H38.5" stroke="white" stroke-width="1.5" stroke-linecap="round" stroke-linejoin="round"/>
</g>
<defs>
<clipPath id="clip0_5219_2618">
<rect width="24" height="24" fill="white" transform="translate(32.5)"/>
</clipPath>
</defs>
</svg>
