<svg width="146" height="40" viewBox="0 0 146 40" fill="none" xmlns="http://www.w3.org/2000/svg">
<path d="M20 36L4 36L4 20C12.8366 20 20 27.1634 20 36Z" fill="white"/>
<path d="M36 20V36H20C20 27.1634 27.1634 20 36 20Z" fill="white"/>
<path d="M18 13C18 8.02944 22.0294 4 27 4C31.9706 4 36 8.02944 36 13C36 17.9706 31.9706 22 27 22C22.0294 22 18 17.9706 18 13Z" fill="#FFC42E"/>
<path d="M20 4H4V20C12.8366 20 20 12.8366 20 4Z" fill="white"/>
<path d="M50.24 19.212H52.52C53.768 19.212 54.392 18.78 54.392 17.556V16.74H55.52V22.764H54.392V21.948C54.392 20.724 53.768 20.292 52.52 20.292H50.24V26.292C50.24 27.084 50.576 27.396 52.208 27.396H53.672C57.272 27.396 57.872 26.724 58.232 22.716H59.456V28.5H44.912V27.396H46.184C46.664 27.396 47 27.084 47 26.388V13.812C47 13.116 46.664 12.804 46.184 12.804H44.912V11.7H59.456V17.268H58.232C57.872 13.236 57.272 12.804 53.672 12.804H50.24V19.212ZM73.0837 24.828C73.0837 27.372 70.9957 28.74 68.2837 28.74C66.5317 28.74 65.1397 28.092 63.9637 26.892L63.7237 28.5H62.5477V24.588H63.7957C64.4917 26.268 65.8837 27.516 68.0677 27.516C69.5317 27.516 70.5397 26.94 70.5397 25.716C70.5397 22.524 62.4997 24.492 62.4997 19.716C62.4997 17.556 64.3477 16.14 67.0117 16.14C68.6677 16.14 69.9877 16.716 71.0437 17.796L71.2357 16.38H72.3877V19.908H71.1637C70.5877 18.444 69.0517 17.316 67.0597 17.316C65.6677 17.316 64.9477 17.916 64.9477 18.804C64.9477 21.564 73.0837 19.812 73.0837 24.828ZM86.1149 24.828C86.1149 27.372 84.0269 28.74 81.3149 28.74C79.5629 28.74 78.1709 28.092 76.9949 26.892L76.7549 28.5H75.5789V24.588H76.8269C77.5229 26.268 78.9149 27.516 81.0989 27.516C82.5629 27.516 83.5709 26.94 83.5709 25.716C83.5709 22.524 75.5309 24.492 75.5309 19.716C75.5309 17.556 77.3789 16.14 80.0429 16.14C81.6989 16.14 83.0189 16.716 84.0749 17.796L84.2669 16.38H85.4189V19.908H84.1949C83.6189 18.444 82.0829 17.316 80.0909 17.316C78.6989 17.316 77.9789 17.916 77.9789 18.804C77.9789 21.564 86.1149 19.812 86.1149 24.828ZM100.178 24.492C99.6502 27.156 97.8022 28.74 94.7062 28.74C91.1542 28.74 88.3942 26.436 88.3942 22.452C88.3942 18.444 91.1302 16.14 94.5862 16.14C97.8262 16.14 100.346 18.276 100.346 22.356H91.6582C91.6582 22.596 91.6582 22.86 91.6822 23.076C91.8022 26.028 93.0502 27.54 95.2582 27.54C95.4502 27.54 95.5942 27.516 95.7622 27.492C97.4662 27.372 98.5222 26.34 98.9302 24.492H100.178ZM94.6102 17.196C92.8582 17.196 91.8502 18.564 91.6822 21.3H97.4422C97.3702 18.54 96.4102 17.196 94.6102 17.196ZM108.34 27.444V28.5H101.884V27.444H103.084C103.516 27.444 103.732 27.204 103.732 26.676V18.204C103.732 17.676 103.516 17.436 103.084 17.436H101.884V16.38H106.78V18.66H106.9C108.004 17.196 109.492 16.14 111.46 16.14C114.004 16.14 115.396 17.628 115.396 20.316V26.7C115.396 27.204 115.636 27.444 116.044 27.444H117.268V28.5H110.812V27.444H111.628C112.036 27.444 112.276 27.204 112.276 26.676V19.908C112.276 18.54 111.604 17.772 110.308 17.772C108.844 17.772 107.668 18.9 106.876 20.34V26.676C106.876 27.204 107.116 27.444 107.523 27.444H108.34ZM130.358 24.492C129.83 27.156 127.982 28.74 125.054 28.74C121.574 28.74 118.886 26.436 118.886 22.452C118.886 18.444 121.79 16.14 125.222 16.14C128.654 16.14 130.238 18.036 130.238 19.572C130.238 20.628 129.566 21.204 128.654 21.204C128.03 21.204 127.454 20.82 127.382 20.172C127.238 19.908 127.19 19.596 127.286 19.236C127.382 18.876 127.694 18.564 128.126 18.516C128.246 18.492 128.366 18.468 128.486 18.468C128.006 17.772 127.07 17.196 125.702 17.196C123.446 17.196 122.126 18.9 122.126 22.404C122.126 25.836 123.326 27.54 125.606 27.54C125.846 27.54 126.038 27.516 126.23 27.468C127.742 27.3 128.726 26.268 129.11 24.492H130.358ZM144.053 24.492C143.525 27.156 141.677 28.74 138.581 28.74C135.029 28.74 132.269 26.436 132.269 22.452C132.269 18.444 135.005 16.14 138.461 16.14C141.701 16.14 144.221 18.276 144.221 22.356H135.533C135.533 22.596 135.533 22.86 135.557 23.076C135.677 26.028 136.925 27.54 139.133 27.54C139.325 27.54 139.469 27.516 139.637 27.492C141.341 27.372 142.397 26.34 142.805 24.492H144.053ZM138.485 17.196C136.733 17.196 135.725 18.564 135.557 21.3H141.317C141.245 18.54 140.285 17.196 138.485 17.196Z" fill="white"/>
</svg>
