<svg width="96" height="32" viewBox="0 0 96 32" fill="none" xmlns="http://www.w3.org/2000/svg">
<path d="M15.7727 13.2727C15.7045 12.697 15.428 12.25 14.9432 11.9318C14.4583 11.6136 13.8636 11.4545 13.1591 11.4545C12.6439 11.4545 12.1932 11.5379 11.8068 11.7045C11.4242 11.8712 11.125 12.1004 10.9091 12.392C10.697 12.6837 10.5909 13.0152 10.5909 13.3864C10.5909 13.697 10.6648 13.964 10.8125 14.1875C10.964 14.4072 11.1572 14.5909 11.392 14.7386C11.6269 14.8826 11.8731 15.0019 12.1307 15.0966C12.3883 15.1875 12.625 15.2614 12.8409 15.3182L14.0227 15.6364C14.3258 15.7159 14.6629 15.8258 15.0341 15.9659C15.4091 16.1061 15.767 16.2973 16.108 16.5398C16.4527 16.7784 16.7367 17.0852 16.9602 17.4602C17.1837 17.8352 17.2955 18.2955 17.2955 18.8409C17.2955 19.4697 17.1307 20.0379 16.8011 20.5455C16.4754 21.053 15.9981 21.4564 15.3693 21.7557C14.7443 22.0549 13.9848 22.2045 13.0909 22.2045C12.2576 22.2045 11.536 22.0701 10.9261 21.8011C10.3201 21.5322 9.8428 21.1572 9.49432 20.6761C9.14962 20.1951 8.95455 19.6364 8.90909 19H10.3636C10.4015 19.4394 10.5492 19.803 10.8068 20.0909C11.0682 20.375 11.3977 20.5871 11.7955 20.7273C12.197 20.8636 12.6288 20.9318 13.0909 20.9318C13.6288 20.9318 14.1117 20.8447 14.5398 20.6705C14.9678 20.4924 15.3068 20.2462 15.5568 19.9318C15.8068 19.6136 15.9318 19.2424 15.9318 18.8182C15.9318 18.4318 15.8239 18.1174 15.608 17.875C15.392 17.6326 15.108 17.4356 14.7557 17.2841C14.4034 17.1326 14.0227 17 13.6136 16.8864L12.1818 16.4773C11.2727 16.2159 10.553 15.8428 10.0227 15.358C9.49242 14.8731 9.22727 14.2386 9.22727 13.4545C9.22727 12.803 9.40341 12.2348 9.75568 11.75C10.1117 11.2614 10.589 10.8826 11.1875 10.6136C11.7898 10.3409 12.4621 10.2045 13.2045 10.2045C13.9545 10.2045 14.6212 10.339 15.2045 10.608C15.7879 10.8731 16.25 11.2367 16.5909 11.6989C16.9356 12.161 17.1174 12.6856 17.1364 13.2727H15.7727ZM19.4304 22V13.2727H20.7713V22H19.4304ZM20.1122 11.8182C19.8509 11.8182 19.6255 11.7292 19.4361 11.5511C19.2505 11.3731 19.1577 11.1591 19.1577 10.9091C19.1577 10.6591 19.2505 10.4451 19.4361 10.267C19.6255 10.089 19.8509 10 20.1122 10C20.3736 10 20.5971 10.089 20.7827 10.267C20.9721 10.4451 21.0668 10.6591 21.0668 10.9091C21.0668 11.1591 20.9721 11.3731 20.7827 11.5511C20.5971 11.7292 20.3736 11.8182 20.1122 11.8182ZM26.75 25.4545C26.1023 25.4545 25.5455 25.3712 25.0795 25.2045C24.6136 25.0417 24.2254 24.8258 23.9148 24.5568C23.608 24.2917 23.3636 24.0076 23.1818 23.7045L24.25 22.9545C24.3712 23.1136 24.5246 23.2955 24.7102 23.5C24.8958 23.7083 25.1496 23.8883 25.4716 24.0398C25.7973 24.1951 26.2235 24.2727 26.75 24.2727C27.4545 24.2727 28.036 24.1023 28.4943 23.7614C28.9527 23.4205 29.1818 22.8864 29.1818 22.1591V20.3864H29.0682C28.9697 20.5455 28.8295 20.7424 28.6477 20.9773C28.4697 21.2083 28.2121 21.4148 27.875 21.5966C27.5417 21.7746 27.0909 21.8636 26.5227 21.8636C25.8182 21.8636 25.1856 21.697 24.625 21.3636C24.0682 21.0303 23.6269 20.5455 23.3011 19.9091C22.9792 19.2727 22.8182 18.5 22.8182 17.5909C22.8182 16.697 22.9754 15.9186 23.2898 15.2557C23.6042 14.589 24.0417 14.0739 24.6023 13.7102C25.1629 13.3428 25.8106 13.1591 26.5455 13.1591C27.1136 13.1591 27.5644 13.2538 27.8977 13.4432C28.2348 13.6288 28.4924 13.8409 28.6705 14.0795C28.8523 14.3144 28.9924 14.5076 29.0909 14.6591H29.2273V13.2727H30.5227V22.25C30.5227 23 30.3523 23.6098 30.0114 24.0795C29.6742 24.553 29.2197 24.8996 28.6477 25.1193C28.0795 25.3428 27.447 25.4545 26.75 25.4545ZM26.7045 20.6591C27.2424 20.6591 27.697 20.536 28.0682 20.2898C28.4394 20.0436 28.7216 19.6894 28.9148 19.2273C29.108 18.7652 29.2045 18.2121 29.2045 17.5682C29.2045 16.9394 29.1098 16.3845 28.9205 15.9034C28.7311 15.4223 28.4508 15.0455 28.0795 14.7727C27.7083 14.5 27.25 14.3636 26.7045 14.3636C26.1364 14.3636 25.6629 14.5076 25.2841 14.7955C24.9091 15.0833 24.6269 15.4697 24.4375 15.9545C24.2519 16.4394 24.1591 16.9773 24.1591 17.5682C24.1591 18.1742 24.2538 18.7102 24.4432 19.1761C24.6364 19.6383 24.9205 20.0019 25.2955 20.267C25.6742 20.5284 26.1439 20.6591 26.7045 20.6591ZM34.3182 16.75V22H32.9773V13.2727H34.2727V14.6364H34.3864C34.5909 14.1932 34.9015 13.8371 35.3182 13.5682C35.7348 13.2955 36.2727 13.1591 36.9318 13.1591C37.5227 13.1591 38.0398 13.2803 38.483 13.5227C38.9261 13.7614 39.2708 14.125 39.517 14.6136C39.7633 15.0985 39.8864 15.7121 39.8864 16.4545V22H38.5455V16.5455C38.5455 15.8598 38.3674 15.3258 38.0114 14.9432C37.6553 14.5568 37.1667 14.3636 36.5455 14.3636C36.1174 14.3636 35.7348 14.4564 35.3977 14.642C35.0644 14.8277 34.8011 15.0985 34.608 15.4545C34.4148 15.8106 34.3182 16.2424 34.3182 16.75ZM48.4276 10.3636V22H47.0185V10.3636H48.4276ZM52.4119 16.75V22H51.071V13.2727H52.3665V14.6364H52.4801C52.6847 14.1932 52.9953 13.8371 53.4119 13.5682C53.8286 13.2955 54.3665 13.1591 55.0256 13.1591C55.6165 13.1591 56.1335 13.2803 56.5767 13.5227C57.0199 13.7614 57.3646 14.125 57.6108 14.6136C57.857 15.0985 57.9801 15.7121 57.9801 16.4545V22H56.6392V16.5455C56.6392 15.8598 56.4612 15.3258 56.1051 14.9432C55.7491 14.5568 55.2604 14.3636 54.6392 14.3636C54.2112 14.3636 53.8286 14.4564 53.4915 14.642C53.1581 14.8277 52.8949 15.0985 52.7017 15.4545C52.5085 15.8106 52.4119 16.2424 52.4119 16.75Z" fill="white"/>
<path d="M84 25V23C84 21.9391 83.5786 20.9217 82.8284 20.1716C82.0783 19.4214 81.0609 19 80 19H72C70.9391 19 69.9217 19.4214 69.1716 20.1716C68.4214 20.9217 68 21.9391 68 23V25" stroke="white" stroke-width="1.5" stroke-linecap="round" stroke-linejoin="round"/>
<path d="M76 15C78.2091 15 80 13.2091 80 11C80 8.79086 78.2091 7 76 7C73.7909 7 72 8.79086 72 11C72 13.2091 73.7909 15 76 15Z" stroke="white" stroke-width="1.5" stroke-linecap="round" stroke-linejoin="round"/>
</svg>
